<svg xmlns="http://www.w3.org/2000/svg" width="94" height="33">
    <path fill="#FFF" fill-rule="evenodd" d="M92.586 15.88l-3.682 3.623 5.101 5.139c-.03.377-.134.677-.309.9-.175.222-.408.333-.697.333-.229 0-.439-.064-.629-.192-.191-.129-.386-.313-.584-.553l-4.621-5.216v5.756c-.077.034-.192.073-.343.116-.153.042-.321.064-.504.064-.656 0-.984-.308-.984-.925V9.07c.076-.034.195-.073.355-.116.16-.042.332-.064.515-.064.64 0 .961.309.961.925v9.251l5.01-5.447c.366.017.652.115.858.295.206.18.309.415.309.706 0 .241-.068.45-.206.63-.137.18-.321.39-.55.63zm-11.541 8.479c-.45.549-.995.968-1.636 1.259-.641.292-1.357.437-2.15.437-.793 0-1.51-.145-2.151-.437-.641-.291-1.189-.71-1.647-1.259-.457-.548-.809-1.207-1.052-1.978-.244-.771-.366-1.636-.366-2.595 0-.96.125-1.825.376-2.596.253-.771.607-1.43 1.065-1.979.457-.548 1.007-.967 1.647-1.259.641-.291 1.35-.436 2.128-.436s1.487.145 2.127.436c.641.292 1.186.711 1.636 1.259.45.549.802 1.208 1.053 1.979.252.771.377 1.636.377 2.596 0 .959-.122 1.824-.366 2.595-.244.771-.591 1.43-1.041 1.978zm-1.35-7.94c-.587-.805-1.399-1.208-2.436-1.208s-1.854.403-2.448 1.208c-.595.806-.892 1.927-.892 3.367 0 1.456.294 2.582.881 3.379.586.796 1.406 1.194 2.459 1.194 1.052 0 1.868-.402 2.447-1.207.58-.806.871-1.928.871-3.366 0-1.44-.295-2.561-.882-3.367zm-11.301 7.94c-.45.549-.995.968-1.636 1.259-.641.292-1.357.437-2.15.437-.794 0-1.51-.145-2.151-.437-.641-.291-1.19-.71-1.647-1.259-.458-.548-.809-1.207-1.053-1.978-.244-.771-.366-1.636-.366-2.595 0-.96.126-1.825.378-2.596.251-.771.606-1.43 1.063-1.979.458-.548 1.007-.967 1.648-1.259.64-.291 1.349-.436 2.128-.436.778 0 1.487.145 2.127.436.64.292 1.186.711 1.636 1.259.45.549.801 1.208 1.052 1.979.252.771.378 1.636.378 2.596 0 .959-.122 1.824-.366 2.595-.244.771-.591 1.43-1.041 1.978zm-1.35-7.94c-.587-.805-1.399-1.208-2.436-1.208-1.038 0-1.854.403-2.448 1.208-.595.806-.893 1.927-.893 3.367 0 1.456.294 2.582.881 3.379.587.796 1.407 1.194 2.46 1.194 1.052 0 1.868-.402 2.447-1.207.58-.806.87-1.928.87-3.366 0-1.44-.294-2.561-.881-3.367zm-11.394 8.12c-.465.514-1.026.896-1.681 1.144-.656.248-1.373.372-2.151.372-.747 0-1.422-.098-2.025-.295-.602-.197-1.094-.424-1.475-.681-.32-.222-.542-.441-.664-.655-.122-.214-.183-.501-.183-.861V9.07c.076-.034.195-.073.355-.116.16-.042.332-.064.515-.064.64 0 .96.309.96.925v4.6c.336-.24.736-.45 1.202-.63.465-.179 1.01-.269 1.636-.269.701 0 1.357.128 1.967.385.61.257 1.14.643 1.59 1.156.45.514.801 1.165 1.053 1.953.251.788.377 1.713.377 2.776 0 1.079-.13 2.012-.389 2.8-.259.788-.621 1.439-1.087 1.953zm-.629-6.809c-.168-.583-.404-1.058-.709-1.426-.305-.369-.668-.643-1.086-.823-.42-.18-.874-.27-1.362-.27-.534 0-1.018.108-1.453.322-.435.214-.804.467-1.11.758v7.272c.229.188.561.369.996.539.434.172.941.257 1.521.257.518 0 .988-.09 1.408-.269.418-.18.781-.459 1.086-.835.305-.377.541-.852.709-1.427.168-.573.252-1.254.252-2.042 0-.788-.084-1.474-.252-2.056zm-11.118 2.158l-7.047 1.105c.412 2.245 1.723 3.366 3.935 3.366.641 0 1.22-.119 1.739-.359.518-.24.93-.497 1.235-.771.366.24.549.565.549.976 0 .24-.095.472-.286.694-.191.223-.45.42-.778.591-.328.171-.709.308-1.143.411-.435.103-.904.154-1.408.154-1.769 0-3.168-.539-4.197-1.619-1.03-1.079-1.545-2.655-1.545-4.728 0-.976.126-1.845.377-2.608.252-.762.603-1.409 1.053-1.94.449-.531.987-.938 1.613-1.22.625-.283 1.304-.424 2.036-.424.687 0 1.319.128 1.899.385.579.257 1.079.621 1.498 1.092.42.472.747 1.028.984 1.67.237.643.355 1.35.355 2.12 0 .377-.076.647-.229.81-.153.163-.366.261-.64.295zm-1.751-3.79c-.51-.608-1.224-.912-2.139-.912-.93 0-1.701.364-2.311 1.092-.61.728-.93 1.769-.961 3.122l6.292-.977c-.077-.941-.37-1.717-.881-2.325zm-10.994 2.584c-.678.355-1.391.483-2.139.386-.68-.119-1.189-.465-1.525-1.038-.336-.572-.669-1.193-.999-1.862-.33-.669-.72-1.291-1.169-1.864-.45-.573-1.112-.926-1.984-1.059-.783-.085-1.494.081-2.132.498-.639.417-1.187.909-1.645 1.475-1.008 1.202-1.792 2.481-2.352 3.839-.561 1.359-1.243 2.719-2.048 4.081-.747-.325-1.282-.841-1.606-1.551-.323-.709-.574-1.452-.749-2.229-.152-1.05-.288-2.114-.411-3.193-.122-1.077-.26-2.142-.41-3.192-.065-.434-.181-.908-.347-1.422-.167-.514-.37-1.026-.61-1.535-.241-.509-.524-.975-.85-1.401-.326-.423-.698-.757-1.116-1-.746-.439-1.48-.577-2.202-.418-.721.16-1.379.546-1.974 1.157-.904 1.054-1.568 2.445-1.989 4.175-.422 1.73-.71 3.55-.865 5.457-.157 1.909-.258 3.781-.306 5.616l-.008.248C.622 21.636.001 19.141.001 16.498.001 7.389 7.352.004 16.42.004c9.068 0 16.419 7.385 16.419 16.494 0 .4-.019.795-.047 1.188-.495.352-1.038.685-1.634.996zm-26.734-.224c.044-1.494.138-2.926.278-4.3.141-1.372.413-2.599.819-3.679.138-.272.253-.414.344-.425.09-.01.175.048.254.173.078.126.142.295.192.506.049.211.091.368.124.471.475 1.703.789 3.43.941 5.18.151 1.752.357 3.495.617 5.23.119.719.289 1.479.511 2.278.22.8.539 1.521.954 2.162.415.642.944 1.142 1.589 1.499.644.359 1.426.444 2.348.257 1.136-.219 2.045-.762 2.727-1.63.681-.866 1.27-1.845 1.766-2.936.497-1.091.953-2.217 1.37-3.377.417-1.159.901-2.113 1.451-2.862.138-.158.343-.368.618-.628.274-.26.54-.281.8-.062.181.206.3.576.358 1.105.059.531.119 1.127.183 1.789.063.662.185 1.332.368 2.012.182.68.459 1.243.83 1.691.54.619 1.178 1.075 1.914 1.365.735.291 1.512.416 2.329.377.931-.039 1.801-.266 2.61-.682.16-.082.315-.172.471-.263-2.664 5.496-8.276 9.284-14.77 9.284-5.025 0-9.52-2.27-12.531-5.842.21-1.318.342-2.701.39-4.154.051-1.533.099-3.046.145-4.539z"/>
</svg>
