<?xml version="1.0" encoding="utf-8"?>
<!-- Generator: Adobe Illustrator 22.0.1, SVG Export Plug-In . SVG Version: 6.00 Build 0)  -->
<svg version="1.1" id="Layer_1" xmlns="http://www.w3.org/2000/svg" xmlns:xlink="http://www.w3.org/1999/xlink" x="0px" y="0px"
	 viewBox="0 0 1577.9 590.5" style="enable-background:new 0 0 1577.9 590.5;" xml:space="preserve">
<style type="text/css">
	.st0{fill:url(#SVGID_1_);}
	.st1{fill:url(#SVGID_2_);}
	.st2{fill:#0099B0;}
</style>
<g>
	<linearGradient id="SVGID_1_" gradientUnits="userSpaceOnUse" x1="326.7954" y1="423.4515" x2="326.7954" y2="12.2783">
		<stop  offset="0" style="stop-color:#B2D236"/>
		<stop  offset="0.1548" style="stop-color:#ACD038"/>
		<stop  offset="0.364" style="stop-color:#9CCB3C"/>
		<stop  offset="0.6043" style="stop-color:#7FC242"/>
		<stop  offset="0.8657" style="stop-color:#4EB749"/>
		<stop  offset="1" style="stop-color:#11B14C"/>
	</linearGradient>
	<path class="st0" d="M72.3,419.2c0.8-31.6,2.6-63.9,5.3-96.8c2.7-32.9,7.7-64.3,15-94.1c7.3-29.8,18.8-53.8,34.4-72
		c10.3-10.5,21.7-17.2,34.2-19.9c12.5-2.7,25.2-0.4,38.1,7.2c7.2,4.2,13.7,9.9,19.3,17.2c5.6,7.3,10.5,15.4,14.7,24.1
		c4.2,8.8,7.7,17.6,10.6,26.5c2.9,8.9,4.9,17,6,24.5c2.6,18.1,5,36.5,7.1,55c2.1,18.6,4.5,36.9,7.1,55c3,13.4,7.4,26.2,13,38.4
		c5.6,12.2,14.9,21.1,27.8,26.7c13.9-23.5,25.8-46.9,35.5-70.4c9.7-23.4,23.3-45.5,40.7-66.2c7.9-9.8,17.4-18.2,28.5-25.4
		c11.1-7.2,23.4-10,36.9-8.6c15.1,2.3,26.6,8.4,34.4,18.2c7.8,9.9,14.5,20.6,20.3,32.1c5.7,11.5,11.5,22.2,17.3,32.1
		c5.8,9.9,14.6,15.8,26.4,17.9c13,1.7,25.3-0.5,37.1-6.7c10.3-5.4,19.7-11.1,28.3-17.2c0.5-6.8,0.8-13.6,0.8-20.5
		c0-157.1-127.3-284.4-284.4-284.4c-157.1,0-284.4,127.3-284.4,284.4c0,45.6,10.8,88.6,29.8,126.8C72.2,422,72.3,420.6,72.3,419.2z"
		/>
	<linearGradient id="SVGID_2_" gradientUnits="userSpaceOnUse" x1="346.1818" y1="185.5565" x2="346.1818" y2="581.0966">
		<stop  offset="0" style="stop-color:#7DB6C8"/>
		<stop  offset="0.1811" style="stop-color:#78B1C2"/>
		<stop  offset="0.3918" style="stop-color:#6AA4B2"/>
		<stop  offset="0.6173" style="stop-color:#53919C"/>
		<stop  offset="0.8517" style="stop-color:#307B80"/>
		<stop  offset="1" style="stop-color:#006C6E"/>
	</linearGradient>
	<path class="st1" d="M574.5,425.6c-14,7.2-29.1,11.1-45.2,11.8c-14.2,0.7-27.6-1.5-40.4-6.5c-12.7-5-23.8-12.9-33.1-23.5
		c-6.4-7.7-11.2-17.4-14.4-29.2c-3.2-11.7-5.3-23.3-6.4-34.7c-1.1-11.4-2.1-21.7-3.2-30.8c-1-9.1-3.1-15.5-6.2-19.1
		c-4.5-3.8-9.1-3.4-13.9,1.1c-4.8,4.5-8.3,8.1-10.7,10.8c-9.5,12.9-17.9,29.4-25.1,49.4c-7.2,20-15.1,39.4-23.7,58.2
		c-8.6,18.8-18.8,35.7-30.6,50.6c-11.8,15-27.6,24.3-47.2,28.1c-16,3.2-29.5,1.8-40.7-4.4c-11.2-6.2-20.3-14.8-27.5-25.9
		c-7.2-11-12.7-23.5-16.5-37.3c-3.8-13.8-6.8-26.9-8.8-39.3c-4.5-29.9-8.1-60-10.7-90.2c-2.6-30.2-8.1-60-16.3-89.3
		c-0.6-1.8-1.3-4.5-2.2-8.1c-0.9-3.6-2-6.5-3.3-8.7c-1.4-2.2-2.8-3.2-4.4-3c-1.6,0.2-3.6,2.6-5.9,7.3c-7,18.6-11.7,39.8-14.2,63.4
		c-2.4,23.7-4,48.4-4.8,74.1c-0.8,25.7-1.6,51.8-2.5,78.3c-0.8,25.1-3.1,48.9-6.8,71.6c52.2,61.6,130,100.7,217.1,100.7
		c112.5,0,209.7-65.3,255.8-160.1C579.9,422.6,577.2,424.1,574.5,425.6z"/>
	<g>
		<path class="st2" d="M695.2,383.1c6.1,33.1,25.6,49.7,58.3,49.7c9.5,0,18.1-1.8,25.8-5.3c7.7-3.5,13.8-7.3,18.3-11.4
			c5.4,3.5,8.1,8.3,8.1,14.4c0,3.5-1.4,7-4.2,10.2c-2.8,3.3-6.7,6.2-11.5,8.7c-4.9,2.5-10.5,4.6-17,6.1c-6.4,1.5-13.4,2.3-20.9,2.3
			c-26.2,0-47-8-62.2-23.9C674.6,418,667,394.8,667,364.2c0-14.4,1.9-27.2,5.6-38.5c3.7-11.2,8.9-20.8,15.6-28.6
			c6.7-7.8,14.6-13.8,23.9-18c9.3-4.2,19.3-6.3,30.2-6.3c10.2,0,19.5,1.9,28.1,5.7c8.6,3.8,16,9.2,22.2,16.1
			c6.2,7,11.1,15.2,14.6,24.6c3.5,9.5,5.3,19.9,5.3,31.3c0,5.6-1.1,9.5-3.4,11.9c-2.3,2.4-5.4,3.9-9.5,4.4L695.2,383.1z M742,297.4
			c-13.8,0-25.2,5.4-34.3,16.1c-9,10.7-13.8,26.1-14.2,46.1l93.3-14.4c-1.1-13.9-5.5-25.3-13.1-34.3
			C766.1,301.9,755.5,297.4,742,297.4z"/>
		<path class="st2" d="M921.7,272.8c10.4,0,20.1,1.9,29.2,5.7c9,3.8,16.9,9.5,23.6,17.1c6.7,7.6,11.9,17.2,15.6,28.8
			c3.7,11.6,5.6,25.3,5.6,41c0,15.9-1.9,29.7-5.8,41.3c-3.8,11.6-9.2,21.2-16.1,28.8c-6.9,7.6-15.2,13.2-24.9,16.9
			c-9.7,3.7-20.4,5.5-31.9,5.5c-11.1,0-21.1-1.5-30-4.4c-8.9-2.9-16.2-6.3-21.9-10c-4.7-3.3-8-6.5-9.8-9.7
			c-1.8-3.2-2.7-7.4-2.7-12.7V207.2c1.1-0.5,2.9-1.1,5.3-1.7c2.4-0.6,4.9-0.9,7.6-0.9c9.5,0,14.2,4.6,14.2,13.7v67.9
			c5-3.5,10.9-6.6,17.8-9.3S912.4,272.8,921.7,272.8z M917.6,297.8c-7.9,0-15.1,1.6-21.5,4.7c-6.4,3.2-11.9,6.9-16.5,11.2v107.3
			c3.4,2.8,8.3,5.4,14.8,8c6.4,2.5,14,3.8,22.6,3.8c7.7,0,14.6-1.3,20.9-4c6.2-2.7,11.6-6.8,16.1-12.3c4.5-5.6,8-12.6,10.5-21
			c2.5-8.5,3.7-18.5,3.7-30.1c0-11.6-1.2-21.7-3.7-30.3c-2.5-8.6-6-15.6-10.5-21c-4.5-5.4-9.9-9.5-16.1-12.1
			C931.6,299.2,924.9,297.8,917.6,297.8z"/>
		<path class="st2" d="M1183.6,365.3c0,14.2-1.8,26.9-5.4,38.3c-3.6,11.4-8.8,21.1-15.4,29.2c-6.7,8.1-14.8,14.3-24.2,18.6
			c-9.5,4.3-20.1,6.4-31.9,6.4c-11.8,0-22.4-2.1-31.9-6.4c-9.5-4.3-17.6-10.5-24.4-18.6c-6.8-8.1-12-17.8-15.6-29.2
			c-3.6-11.4-5.4-24.1-5.4-38.3s1.9-26.9,5.6-38.3c3.7-11.4,9-21.1,15.8-29.2c6.8-8.1,14.9-14.3,24.4-18.6c9.5-4.3,20-6.4,31.5-6.4
			c11.5,0,22,2.2,31.5,6.4c9.5,4.3,17.6,10.5,24.3,18.6c6.7,8.1,11.9,17.8,15.6,29.2C1181.7,338.4,1183.6,351.2,1183.6,365.3z
			 M1106.6,297.8c-15.4,0-27.5,5.9-36.3,17.8c-8.8,11.9-13.2,28.4-13.2,49.7c0,21.5,4.4,38.1,13.1,49.9
			c8.7,11.8,20.9,17.6,36.5,17.6c15.6,0,27.7-5.9,36.3-17.8c8.6-11.9,12.9-28.4,12.9-49.7c0-21.2-4.4-37.8-13.1-49.7
			C1134,303.8,1121.9,297.8,1106.6,297.8z"/>
		<path class="st2" d="M1371.1,365.3c0,14.2-1.8,26.9-5.4,38.3c-3.6,11.4-8.8,21.1-15.4,29.2c-6.7,8.1-14.8,14.3-24.2,18.6
			c-9.5,4.3-20.1,6.4-31.9,6.4c-11.8,0-22.4-2.1-31.9-6.4c-9.5-4.3-17.6-10.5-24.4-18.6c-6.8-8.1-12-17.8-15.6-29.2
			c-3.6-11.4-5.4-24.1-5.4-38.3s1.9-26.9,5.6-38.3c3.7-11.4,9-21.1,15.8-29.2c6.8-8.1,14.9-14.3,24.4-18.6c9.5-4.3,20-6.4,31.5-6.4
			c11.5,0,22,2.2,31.5,6.4c9.5,4.3,17.6,10.5,24.3,18.6c6.7,8.1,11.9,17.8,15.6,29.2C1369.2,338.4,1371.1,351.2,1371.1,365.3z
			 M1294.1,297.8c-15.4,0-27.5,5.9-36.3,17.8c-8.8,11.9-13.2,28.4-13.2,49.7c0,21.5,4.4,38.1,13.1,49.9
			c8.7,11.8,20.9,17.6,36.5,17.6c15.6,0,27.7-5.9,36.3-17.8c8.6-11.9,12.9-28.4,12.9-49.7c0-21.2-4.4-37.8-13.1-49.7
			C1321.5,303.8,1309.5,297.8,1294.1,297.8z"/>
		<path class="st2" d="M1435.9,453.9c-2.3,0.6-4.8,0.9-7.5,0.9c-9.7,0-14.6-4.6-14.6-13.7v-234c1.1-0.5,2.9-1.1,5.3-1.7
			c2.4-0.6,4.9-0.9,7.6-0.9c9.5,0,14.2,4.6,14.2,13.7v136.5l74.3-80.4c5.4,0.3,9.7,1.7,12.7,4.4c3.1,2.7,4.6,6.1,4.6,10.4
			c0,3.5-1,6.6-3,9.3s-4.8,5.8-8.1,9.3l-54.6,53.5l75.6,75.8c-0.5,5.6-2,10-4.6,13.3c-2.6,3.3-6.1,4.9-10.3,4.9
			c-3.4,0-6.5-0.9-9.3-2.8c-2.8-1.9-5.7-4.6-8.7-8.2l-68.5-77v84.9C1439.8,452.7,1438.1,453.2,1435.9,453.9z"/>
	</g>
</g>
</svg>
