<svg xmlns="http://www.w3.org/2000/svg" width="128" height="33">
    <path fill="#FFF" fill-rule="evenodd" d="M127.929 14.734c-.046.146-.107.271-.184.373-.153-.034-.353-.068-.598-.102-.246-.035-.491-.052-.737-.052-.705 0-1.327.082-1.863.244-.538.163-.983.356-1.335.579v9.617c-.077.034-.192.072-.345.115-.154.043-.322.064-.506.064-.66 0-.99-.308-.99-.925V15.93c0-.394.065-.707.196-.938.13-.232.349-.459.656-.682.398-.291.939-.544 1.622-.758.682-.214 1.453-.322 2.313-.322 1.226 0 1.84.343 1.84 1.029 0 .172-.023.33-.069.475zm-10.101 4.873l-7.087 1.106c.414 2.246 1.733 3.368 3.957 3.368.645 0 1.228-.119 1.749-.36.522-.24.936-.497 1.243-.771.368.24.552.565.552.977 0 .24-.096.472-.287.694-.192.223-.453.42-.783.591-.33.172-.713.309-1.15.412-.438.103-.909.154-1.416.154-1.779 0-3.186-.54-4.222-1.62-1.035-1.08-1.553-2.656-1.553-4.731 0-.977.127-1.847.379-2.61.254-.762.607-1.41 1.059-1.941.452-.531.993-.939 1.622-1.221.629-.283 1.312-.425 2.049-.425.69 0 1.326.129 1.909.386s1.085.622 1.507 1.093c.422.472.751 1.028.989 1.671s.357 1.35.357 2.122c0 .377-.076.647-.23.809-.153.163-.368.262-.644.296zm-1.76-3.792c-.514-.609-1.232-.913-2.152-.913-.936 0-1.711.364-2.324 1.093-.613.728-.936 1.769-.966 3.124l6.327-.978c-.076-.942-.372-1.718-.885-2.326zm-10.942 9.757c-.66 0-.99-.308-.99-.925v-6.686c0-1.028-.252-1.791-.758-2.288-.507-.497-1.174-.746-2.002-.746-.538 0-1.04.108-1.507.322-.469.214-.879.475-1.232.784v9.36c-.076.034-.192.072-.345.115-.154.043-.322.064-.506.064-.66 0-.99-.308-.99-.925V8.782c.077-.034.196-.073.357-.116.161-.042.334-.064.518-.064.644 0 .966.308.966.926v4.628c.368-.24.801-.454 1.3-.643.498-.188 1.062-.283 1.692-.283.644 0 1.231.095 1.76.283.53.189.986.476 1.369.862.383.385.682.874.897 1.465.215.592.322 1.282.322 2.07v7.483c-.076.034-.195.072-.356.115-.161.043-.326.064-.495.064zm-14.554-1.915c.346.283.832.424 1.462.424.26 0 .552-.051.874-.154.322-.103.591-.223.805-.36.092.103.176.231.254.386.076.154.114.334.114.54 0 .377-.199.685-.598.925-.399.24-.951.36-1.657.36-1.074 0-1.944-.266-2.611-.797-.668-.531-1.001-1.414-1.001-2.648V10.119c.077-.034.195-.073.357-.116.16-.042.333-.064.517-.064.645 0 .967.309.967.926v2.957h3.774c.046.086.092.201.138.347.046.146.068.305.068.476 0 .583-.23.874-.69.874h-3.29v6.685c0 .686.173 1.17.517 1.453zm-6.522 1.247c-.368.24-.855.45-1.461.63-.606.18-1.3.27-2.082.27-1.443 0-2.559-.317-3.349-.951-.79-.635-1.185-1.551-1.185-2.752 0-1.131.33-1.983.99-2.558.659-.574 1.587-.93 2.784-1.067l3.267-.36v-.72c0-.857-.23-1.483-.69-1.877-.46-.394-1.081-.592-1.864-.592-.644 0-1.25.103-1.818.309-.567.206-1.073.437-1.518.694-.123-.12-.235-.257-.334-.411-.1-.155-.149-.326-.149-.514 0-.24.053-.438.16-.592.108-.154.277-.3.507-.437.414-.24.889-.424 1.426-.553.537-.128 1.12-.193 1.749-.193 1.335 0 2.393.335 3.176 1.003.782.669 1.173 1.723 1.173 3.163v6.094c0 .377-.065.664-.196.861-.13.197-.326.382-.586.553zm-1.036-5.168l-2.853.334c-.798.086-1.388.287-1.771.604-.384.317-.576.785-.576 1.402 0 .651.222 1.153.668 1.504.444.351 1.119.527 2.025.527.644 0 1.176-.073 1.598-.219.422-.145.725-.287.909-.424v-3.728zm-9.848-.129l-7.088 1.106c.415 2.246 1.734 3.368 3.958 3.368.645 0 1.228-.119 1.749-.36.521-.24.936-.497 1.243-.771.368.24.552.565.552.977 0 .24-.096.472-.288.694-.191.223-.452.42-.783.591-.33.172-.713.309-1.15.412-.437.103-.908.154-1.415.154-1.78 0-3.186-.54-4.222-1.62-1.035-1.08-1.553-2.656-1.553-4.731 0-.977.126-1.847.379-2.61.253-.762.606-1.41 1.059-1.941.452-.531.993-.939 1.622-1.221.629-.283 1.312-.425 2.048-.425.69 0 1.327.129 1.91.386s1.085.622 1.507 1.093c.422.472.751 1.028.989 1.671s.357 1.35.357 2.122c0 .377-.077.647-.23.809-.153.163-.368.262-.644.296zm-1.761-3.792c-.514-.609-1.231-.913-2.151-.913-.936 0-1.711.364-2.324 1.093-.614.728-.936 1.769-.967 3.124l6.328-.978c-.077-.942-.372-1.718-.886-2.326zm-9.629 1.336c-.169.712-.357 1.475-.564 2.289-.207.814-.418 1.603-.632 2.365-.216.764-.419 1.458-.611 2.083-.191.626-.356 1.102-.494 1.427-.077.069-.203.133-.38.193-.176.06-.38.09-.61.09-.291 0-.532-.038-.724-.115-.193-.078-.319-.202-.38-.373-.169-.463-.349-1.011-.541-1.646-.191-.634-.395-1.324-.61-2.07-.214-.745-.433-1.53-.655-2.353-.223-.822-.441-1.636-.656-2.442-.215.806-.433 1.62-.656 2.442-.222.823-.448 1.612-.679 2.366-.23.755-.452 1.466-.667 2.134-.215.669-.414 1.26-.598 1.774-.123.086-.261.155-.415.206-.153.051-.36.077-.621.077-.245 0-.471-.047-.679-.141-.206-.094-.348-.245-.425-.45-.184-.428-.403-1.097-.656-2.006-.253-.908-.514-1.907-.782-2.995-.269-1.089-.522-2.186-.76-3.291-.238-1.106-.433-2.07-.586-2.893.107-.12.241-.232.403-.334.16-.103.356-.155.586-.155.292 0 .507.09.645.27.137.18.245.467.321.861.138.721.3 1.539.484 2.456s.368 1.813.552 2.687c.184.874.356 1.671.518 2.391l.356 1.595h.093c.092-.309.226-.772.402-1.389.176-.617.38-1.324.61-2.121.23-.797.483-1.659.759-2.584l.829-2.777c.276-.171.605-.258.989-.258.567 0 .92.223 1.058.669.276.891.541 1.779.794 2.661l.702 2.456c.215.754.399 1.427.553 2.018.152.592.276 1.042.368 1.35h.114c.353-1.542.737-3.179 1.151-4.911.414-1.731.752-3.446 1.012-5.142.215-.155.476-.232.783-.232.261 0 .467.069.621.206.153.137.23.351.23.643 0 .189-.049.552-.15 1.093-.099.54-.234 1.165-.402 1.876zm-16.912 2.456l-7.087 1.106c.414 2.246 1.733 3.368 3.957 3.368.645 0 1.228-.119 1.749-.36.522-.24.936-.497 1.243-.771.368.24.552.565.552.977 0 .24-.096.472-.287.694-.192.223-.453.42-.783.591-.33.172-.714.309-1.151.412-.437.103-.908.154-1.415.154-1.779 0-3.186-.54-4.222-1.62-1.035-1.08-1.553-2.656-1.553-4.731 0-.977.126-1.847.379-2.61.253-.762.606-1.41 1.059-1.941.452-.531.993-.939 1.622-1.221.629-.283 1.312-.425 2.048-.425.69 0 1.327.129 1.91.386s1.085.622 1.507 1.093c.422.472.751 1.028.989 1.671s.357 1.35.357 2.122c0 .377-.077.647-.23.809-.153.163-.368.262-.644.296zm-1.76-3.792c-.514-.609-1.232-.913-2.152-.913-.936 0-1.711.364-2.324 1.093-.614.728-.936 1.769-.966 3.124l6.327-.978c-.076-.942-.372-1.718-.885-2.326zm-11.772 2.869c-.682.355-1.4.484-2.152.387-.684-.119-1.196-.465-1.533-1.039-.339-.572-.673-1.194-1.005-1.864-.332-.669-.724-1.291-1.176-1.865-.453-.573-1.118-.926-1.996-1.059-.787-.085-1.502.081-2.144.498-.642.417-1.194.91-1.654 1.476-1.014 1.203-1.803 2.483-2.366 3.842-.564 1.359-1.25 2.72-2.059 4.083-.752-.325-1.29-.842-1.615-1.552-.326-.71-.578-1.453-.754-2.23-.153-1.051-.29-2.116-.413-3.195-.123-1.078-.261-2.143-.413-3.195-.065-.434-.182-.908-.349-1.422-.167-.515-.372-1.027-.614-1.537-.241-.509-.526-.975-.854-1.401-.328-.424-.702-.758-1.123-1.001-.75-.439-1.488-.577-2.214-.418-.726.16-1.388.546-1.985 1.157-.91 1.055-1.577 2.447-2.001 4.178-.424 1.731-.714 3.552-.871 5.461-.157 1.91-.259 3.783-.307 5.619l-.008.249C.62 21.64-.005 19.143-.005 16.499c0-9.115 7.394-16.505 16.514-16.505s16.514 7.39 16.514 16.505c0 .4-.02.796-.048 1.189-.498.352-1.044.685-1.643.996zM4.444 18.46c.045-1.495.138-2.928.28-4.302.141-1.374.415-2.601.823-3.682.139-.273.254-.414.345-.425.092-.01.177.047.256.173.079.126.143.295.193.506.05.212.092.369.125.472.478 1.703.794 3.432.946 5.183.153 1.753.36 3.497.621 5.233.12.72.291 1.48.514 2.279.222.802.542 1.523.96 2.164.417.642.949 1.143 1.598 1.501.647.358 1.434.444 2.361.257 1.143-.22 2.057-.763 2.743-1.631.685-.868 1.278-1.847 1.777-2.939.498-1.091.958-2.218 1.377-3.378.42-1.161.906-2.116 1.459-2.865.138-.158.345-.368.622-.628.276-.26.544-.281.805-.062.181.206.301.576.36 1.106.059.531.12 1.128.184 1.79.063.662.186 1.333.37 2.013.183.68.462 1.244.835 1.692.543.62 1.184 1.076 1.924 1.366.74.291 1.521.416 2.343.377.936-.038 1.811-.266 2.625-.682.161-.082.317-.173.474-.264-2.679 5.5-8.324 9.29-14.855 9.29-5.054 0-9.575-2.271-12.604-5.845.212-1.319.345-2.703.393-4.157.051-1.533.1-3.048.146-4.542z"/>
</svg>
