<?xml version="1.0" encoding="utf-8"?>
<!-- Generator: Adobe Illustrator 22.0.1, SVG Export Plug-In . SVG Version: 6.00 Build 0)  -->
<svg version="1.1" id="Layer_1" xmlns="http://www.w3.org/2000/svg" xmlns:xlink="http://www.w3.org/1999/xlink" x="0px" y="0px"
	 viewBox="0 0 1920 590.5" style="enable-background:new 0 0 1920 590.5;" xml:space="preserve">
<style type="text/css">
	.st0{fill:url(#SVGID_1_);}
	.st1{fill:url(#SVGID_2_);}
	.st2{fill:#1D76BB;}
</style>
<g>
	<linearGradient id="SVGID_1_" gradientUnits="userSpaceOnUse" x1="297.4836" y1="413.6291" x2="297.4836" y2="31.9258">
		<stop  offset="0" style="stop-color:#FBB516"/>
		<stop  offset="0.1426" style="stop-color:#FBB117"/>
		<stop  offset="0.3086" style="stop-color:#F9A71B"/>
		<stop  offset="0.4863" style="stop-color:#F7971E"/>
		<stop  offset="0.6722" style="stop-color:#F48021"/>
		<stop  offset="0.8625" style="stop-color:#F16023"/>
		<stop  offset="1" style="stop-color:#EF3E24"/>
	</linearGradient>
	<path class="st0" d="M61.3,409.7c0.8-29.4,2.4-59.3,4.9-89.9c2.5-30.5,7.1-59.7,13.9-87.4c6.8-27.7,17.4-50,32-66.8
		c9.6-9.8,20.1-16,31.8-18.5c11.6-2.5,23.4-0.3,35.4,6.7c6.7,3.9,12.7,9.2,17.9,16c5.2,6.8,9.8,14.3,13.7,22.4
		c3.9,8.2,7.1,16.3,9.8,24.6c2.7,8.2,4.5,15.8,5.6,22.8c2.4,16.8,4.6,33.9,6.6,51.1c2,17.3,4.2,34.3,6.6,51.1
		c2.8,12.4,6.8,24.3,12.1,35.7c5.2,11.4,13.8,19.6,25.8,24.8c12.9-21.8,23.9-43.6,32.9-65.3c9-21.7,21.6-42.2,37.8-61.5
		c7.4-9.1,16.2-16.9,26.5-23.6c10.3-6.7,21.7-9.3,34.3-8c14,2.1,24.7,7.8,31.9,16.9c7.2,9.2,13.5,19.1,18.8,29.8
		c5.3,10.7,10.7,20.7,16.1,29.8c5.4,9.2,13.6,14.7,24.5,16.6c12,1.6,23.5-0.5,34.4-6.2c9.6-5,18.3-10.3,26.3-15.9
		c0.4-6.3,0.8-12.6,0.8-19c0-145.8-118.2-264-264-264c-145.8,0-264,118.2-264,264c0,42.3,10,82.2,27.7,117.7
		C61.2,412.3,61.2,411,61.3,409.7z"/>
	<linearGradient id="SVGID_2_" gradientUnits="userSpaceOnUse" x1="315.4806" y1="192.7847" x2="315.4806" y2="559.9754">
		<stop  offset="0" style="stop-color:#28A8E0"/>
		<stop  offset="0.25" style="stop-color:#2AA7DF"/>
		<stop  offset="0.409" style="stop-color:#31A2DB"/>
		<stop  offset="0.5426" style="stop-color:#3A9AD5"/>
		<stop  offset="0.6622" style="stop-color:#448ECC"/>
		<stop  offset="0.7724" style="stop-color:#4D80C1"/>
		<stop  offset="0.8757" style="stop-color:#556FB5"/>
		<stop  offset="0.9718" style="stop-color:#5C5AA7"/>
		<stop  offset="1" style="stop-color:#5E53A3"/>
	</linearGradient>
	<path class="st1" d="M527.4,415.6c-13,6.7-27,10.3-42,10.9c-13.1,0.6-25.6-1.4-37.5-6c-11.8-4.6-22.1-11.9-30.8-21.9
		c-6-7.2-10.4-16.2-13.4-27.1c-2.9-10.9-4.9-21.6-5.9-32.2c-1-10.6-2-20.1-2.9-28.6c-0.9-8.5-2.9-14.4-5.8-17.7
		c-4.2-3.5-8.5-3.2-12.9,1c-4.4,4.2-7.7,7.5-9.9,10.1c-8.8,12-16.6,27.3-23.3,45.8c-6.7,18.6-14,36.6-22,54
		c-8,17.5-17.4,33.1-28.4,47c-11,13.9-25.6,22.6-43.9,26.1c-14.8,3-27.4,1.6-37.7-4.1c-10.4-5.7-18.9-13.7-25.6-24
		c-6.7-10.3-11.8-21.8-15.3-34.6c-3.6-12.8-6.3-24.9-8.2-36.5c-4.2-27.8-7.5-55.7-9.9-83.7c-2.4-28-7.5-55.7-15.1-82.9
		c-0.5-1.6-1.2-4.2-2-7.5c-0.8-3.4-1.8-6.1-3.1-8.1c-1.3-2-2.6-2.9-4.1-2.8c-1.5,0.2-3.3,2.4-5.5,6.8c-6.5,17.3-10.9,36.9-13.2,58.9
		c-2.3,22-3.8,44.9-4.5,68.8c-0.7,23.9-1.5,48.1-2.3,72.7c-0.8,23.3-2.9,45.4-6.3,66.5c48.4,57.2,120.7,93.5,201.5,93.5
		c104.4,0,194.7-60.6,237.5-148.6C532.5,412.8,530,414.3,527.4,415.6z"/>
	<g>
		<path class="st2" d="M653.9,335c5.7,30.7,23.7,46.1,54.2,46.1c8.8,0,16.8-1.6,23.9-4.9c7.1-3.3,12.8-6.8,17-10.6
			c5,3.3,7.6,7.7,7.6,13.4c0,3.3-1.3,6.5-3.9,9.5c-2.6,3.1-6.2,5.8-10.7,8.1c-4.5,2.3-9.8,4.2-15.7,5.6c-6,1.4-12.4,2.1-19.4,2.1
			c-24.3,0-43.6-7.4-57.8-22.2c-14.2-14.8-21.3-36.4-21.3-64.8c0-13.4,1.7-25.3,5.2-35.7c3.5-10.4,8.3-19.3,14.5-26.6
			c6.2-7.3,13.6-12.8,22.2-16.7c8.6-3.9,17.9-5.8,28-5.8c9.4,0,18.1,1.8,26.1,5.3c8,3.5,14.8,8.5,20.6,15
			c5.8,6.5,10.3,14.1,13.5,22.9c3.3,8.8,4.9,18.5,4.9,29c0,5.2-1,8.9-3.1,11.1s-5,3.6-8.8,4L653.9,335z M697.3,255.4
			c-12.8,0-23.4,5-31.8,15c-8.4,10-12.8,24.2-13.2,42.8l86.6-13.4c-1-12.9-5.1-23.5-12.1-31.9C719.8,259.6,709.9,255.4,697.3,255.4z
			"/>
		<path class="st2" d="M888.5,278.6c-2.9,11-5.9,22.2-9,33.4c-3,11.3-6.1,22.1-9.3,32.4c-3.1,10.3-6.2,20.1-9.1,29.2
			c-2.9,9.2-5.7,17.3-8.2,24.3c-1.7,1.2-3.6,2.1-5.7,2.8c-2.1,0.7-4.9,1.1-8.5,1.1c-3.4,0-6.5-0.6-9.3-1.9c-2.8-1.3-4.8-3.3-5.8-6.2
			c-2.5-5.9-5.5-15-9-27.5c-3.5-12.4-7-26.1-10.7-41c-3.7-14.9-7.1-29.9-10.4-45.1c-3.3-15.1-5.9-28.3-8-39.6
			c1.5-1.6,3.3-3.2,5.5-4.6c2.2-1.4,4.9-2.1,8-2.1c4,0,6.9,1.2,8.8,3.7c1.9,2.5,3.4,6.4,4.4,11.8c1.9,9.9,4.1,21.1,6.6,33.6
			c2.5,12.6,5,24.8,7.6,36.8s4.9,22.9,7.1,32.7c2.2,9.9,3.8,17.1,4.9,21.8h1.3c1.3-4.2,3.1-10.6,5.5-19c2.4-8.4,5.2-18.1,8.3-29
			c3.1-10.9,6.6-22.7,10.4-35.4s7.6-25.3,11.3-38c3.8-2.3,8.3-3.5,13.5-3.5c7.8,0,12.6,3.1,14.5,9.2c3.8,12.2,7.4,24.3,10.9,36.4
			c3.5,12.1,6.7,23.3,9.6,33.6c2.9,10.3,5.5,19.5,7.6,27.6c2.1,8.1,3.8,14.3,5,18.5h1.6c4.8-21.1,10.1-43.5,15.7-67.2
			c5.7-23.7,10.3-47.2,13.8-70.4c2.9-2.1,6.5-3.2,10.7-3.2c3.6,0,6.4,0.9,8.5,2.8c2.1,1.9,3.1,4.8,3.1,8.8c0,2.6-0.7,7.6-2.1,15
			c-1.4,7.4-3.2,16-5.5,25.7c-2.3,9.7-4.9,20.2-7.7,31.3c-2.8,11.1-5.7,21.9-8.7,32.4c-2.9,10.4-5.7,20-8.3,28.5
			c-2.6,8.6-4.9,15.1-6.8,19.5c-1,0.9-2.8,1.8-5.2,2.6c-2.4,0.8-5.2,1.2-8.3,1.2c-4,0-7.3-0.5-9.9-1.6c-2.6-1.1-4.4-2.8-5.2-5.1
			c-2.3-6.3-4.8-13.8-7.4-22.5c-2.6-8.7-5.4-18.1-8.3-28.3c-2.9-10.2-5.9-20.9-9-32.2C894.4,300.8,891.4,289.7,888.5,278.6z"/>
		<path class="st2" d="M1041.2,335c5.7,30.7,23.7,46.1,54.2,46.1c8.8,0,16.8-1.6,23.9-4.9c7.1-3.3,12.8-6.8,17-10.6
			c5,3.3,7.6,7.7,7.6,13.4c0,3.3-1.3,6.5-3.9,9.5c-2.6,3.1-6.2,5.8-10.7,8.1c-4.5,2.3-9.8,4.2-15.7,5.6c-6,1.4-12.4,2.1-19.4,2.1
			c-24.3,0-43.6-7.4-57.8-22.2c-14.2-14.8-21.3-36.4-21.3-64.8c0-13.4,1.7-25.3,5.2-35.7c3.5-10.4,8.3-19.3,14.5-26.6
			c6.2-7.3,13.6-12.8,22.2-16.7c8.6-3.9,17.9-5.8,28-5.8c9.4,0,18.1,1.8,26.1,5.3c8,3.5,14.8,8.5,20.6,15
			c5.8,6.5,10.3,14.1,13.5,22.9c3.3,8.8,4.9,18.5,4.9,29c0,5.2-1,8.9-3.1,11.1c-2.1,2.2-5,3.6-8.8,4L1041.2,335z M1084.6,255.4
			c-12.8,0-23.4,5-31.8,15c-8.4,10-12.8,24.2-13.2,42.8l86.6-13.4c-1-12.9-5.1-23.5-12.1-31.9C1107,259.6,1097.2,255.4,1084.6,255.4
			z"/>
		<path class="st2" d="M1238.3,232.5c18.3,0,32.7,4.6,43.5,13.7c10.7,9.2,16.1,23.6,16.1,43.3V373c0,5.2-0.9,9.1-2.7,11.8
			c-1.8,2.7-4.5,5.2-8,7.6c-5,3.3-11.7,6.2-20,8.6s-17.8,3.7-28.5,3.7c-19.7,0-35-4.3-45.8-13c-10.8-8.7-16.2-21.2-16.2-37.7
			c0-15.5,4.5-27.2,13.5-35c9-7.9,21.7-12.7,38.1-14.6l44.7-4.9v-9.9c0-11.7-3.1-20.3-9.4-25.7c-6.3-5.4-14.8-8.1-25.5-8.1
			c-8.8,0-17.1,1.4-24.9,4.2c-7.8,2.8-14.7,6-20.8,9.5c-1.7-1.6-3.2-3.5-4.6-5.6c-1.4-2.1-2-4.5-2-7c0-3.3,0.7-6,2.2-8.1
			s3.8-4.1,6.9-6c5.7-3.3,12.2-5.8,19.5-7.6C1221.7,233.4,1229.6,232.5,1238.3,232.5z M1238.6,381.4c8.8,0,16.1-1,21.9-3
			c5.8-2,9.9-3.9,12.4-5.8v-51l-39,4.6c-10.9,1.2-19,3.9-24.2,8.3c-5.3,4.3-7.9,10.7-7.9,19.2c0,8.9,3,15.8,9.1,20.6
			C1217,379,1226.2,381.4,1238.6,381.4z"/>
		<path class="st2" d="M1393.5,404.3c-14.7,0-26.6-3.6-35.7-10.9S1344,374,1344,357.1V189.9c1-0.5,2.7-1,4.9-1.6
			c2.2-0.6,4.6-0.9,7.1-0.9c8.8,0,13.2,4.2,13.2,12.7v40.5h51.6c0.6,1.2,1.3,2.8,1.9,4.8c0.6,2,0.9,4.2,0.9,6.5c0,8-3.1,12-9.4,12
			h-45v91.5c0,9.4,2.4,16,7.1,19.9c4.7,3.9,11.4,5.8,20,5.8c3.6,0,7.6-0.7,12-2.1c4.4-1.4,8.1-3,11-4.9c1.3,1.4,2.4,3.2,3.5,5.3
			c1,2.1,1.6,4.6,1.6,7.4c0,5.2-2.7,9.4-8.2,12.7C1410.7,402.7,1403.1,404.3,1393.5,404.3z"/>
		<path class="st2" d="M1481.9,400.6c-2.1,0.6-4.4,0.9-6.9,0.9c-9,0-13.5-4.2-13.5-12.7V171.6c1-0.5,2.7-1,4.9-1.6
			c2.2-0.6,4.6-0.9,7.1-0.9c8.8,0,13.2,4.2,13.2,12.7v63.4c5-3.3,11-6.2,17.8-8.8c6.8-2.6,14.5-3.9,23.1-3.9
			c8.8,0,16.8,1.3,24.1,3.9s13.5,6.5,18.7,11.8c5.2,5.3,9.3,12,12.3,20.1c2.9,8.1,4.4,17.5,4.4,28.3V399c-1,0.5-2.7,1-4.9,1.6
			c-2.2,0.6-4.5,0.9-6.8,0.9c-9,0-13.5-4.2-13.5-12.7v-91.5c0-14.1-3.5-24.5-10.4-31.3c-6.9-6.8-16.1-10.2-27.4-10.2
			c-7.4,0-14.2,1.5-20.6,4.4c-6.4,2.9-12,6.5-16.9,10.7V399C1485.6,399.5,1484,400,1481.9,400.6z"/>
		<path class="st2" d="M1652.3,335c5.7,30.7,23.7,46.1,54.2,46.1c8.8,0,16.8-1.6,23.9-4.9c7.1-3.3,12.8-6.8,17-10.6
			c5,3.3,7.6,7.7,7.6,13.4c0,3.3-1.3,6.5-3.9,9.5c-2.6,3.1-6.2,5.8-10.7,8.1c-4.5,2.3-9.8,4.2-15.7,5.6c-6,1.4-12.4,2.1-19.4,2.1
			c-24.3,0-43.6-7.4-57.8-22.2c-14.2-14.8-21.3-36.4-21.3-64.8c0-13.4,1.7-25.3,5.2-35.7c3.5-10.4,8.3-19.3,14.5-26.6
			c6.2-7.3,13.6-12.8,22.2-16.7c8.6-3.9,17.9-5.8,28-5.8c9.4,0,18.1,1.8,26.1,5.3c8,3.5,14.8,8.5,20.6,15
			c5.8,6.5,10.3,14.1,13.5,22.9c3.3,8.8,4.9,18.5,4.9,29c0,5.2-1,8.9-3.1,11.1c-2.1,2.2-5,3.6-8.8,4L1652.3,335z M1695.7,255.4
			c-12.8,0-23.4,5-31.8,15c-8.4,10-12.8,24.2-13.2,42.8l86.6-13.4c-1-12.9-5.1-23.5-12.1-31.9
			C1718.1,259.6,1708.3,255.4,1695.7,255.4z"/>
		<path class="st2" d="M1822.9,399c-1,0.5-2.6,1-4.7,1.6c-2.1,0.6-4.4,0.9-6.9,0.9c-9,0-13.5-4.2-13.5-12.7V269.5
			c0-5.4,0.9-9.7,2.7-12.9c1.8-3.2,4.8-6.3,9-9.3c5.5-4,12.9-7.4,22.2-10.4c9.3-2.9,19.9-4.4,31.6-4.4c16.8,0,25.2,4.7,25.2,14.1
			c0,2.3-0.3,4.5-0.9,6.5c-0.6,2-1.5,3.7-2.5,5.1c-2.1-0.5-4.8-0.9-8.2-1.4c-3.4-0.5-6.7-0.7-10.1-0.7c-9.7,0-18.2,1.1-25.5,3.3
			c-7.4,2.2-13.4,4.9-18.3,7.9V399z"/>
	</g>
</g>
</svg>
